<?xml version="1.0" encoding="UTF-8" standalone="no"?>
<svg width="59px" height="56px" viewBox="0 0 59 56" version="1.1" xmlns="http://www.w3.org/2000/svg" xmlns:xlink="http://www.w3.org/1999/xlink" xmlns:sketch="http://www.bohemiancoding.com/sketch/ns">
    <!-- Generator: Sketch 3.0.3 (7891) - http://www.bohemiancoding.com/sketch -->
    <title>d3</title>
    <desc>Created with Sketch.</desc>
    <defs>
        <linearGradient x1="-89.6821662%" y1="-92.819878%" x2="106.623385%" y2="106.041826%" id="linearGradient-1">
            <stop stop-color="#F9A03C" offset="0%"></stop>
            <stop stop-color="#F7974E" offset="100%"></stop>
        </linearGradient>
        <linearGradient x1="-258.923825%" y1="-255.011869%" x2="97.6202479%" y2="99.7540098%" id="linearGradient-2">
            <stop stop-color="#F9A03C" offset="0%"></stop>
            <stop stop-color="#F7974E" offset="100%"></stop>
        </linearGradient>
        <linearGradient x1="-254.733725%" y1="-261.967947%" x2="99.1169652%" y2="101.690818%" id="linearGradient-3">
            <stop stop-color="#F9A03C" offset="0%"></stop>
            <stop stop-color="#F7974E" offset="100%"></stop>
        </linearGradient>
        <linearGradient x1="1.72330046%" y1="-1.82169774%" x2="90.5782901%" y2="92.1067478%" id="linearGradient-4">
            <stop stop-color="#F26D58" offset="0%"></stop>
            <stop stop-color="#F9A03C" offset="100%"></stop>
        </linearGradient>
        <linearGradient x1="15.8436473%" y1="-14.5653268%" x2="120.126091%" y2="81.3161467%" id="linearGradient-5">
            <stop stop-color="#B84E51" offset="0%"></stop>
            <stop stop-color="#F68E48" offset="100%"></stop>
        </linearGradient>
        <linearGradient x1="10.0054309%" y1="23.4664325%" x2="74.9450118%" y2="147.391179%" id="linearGradient-6">
            <stop stop-color="#F9A03C" offset="0%"></stop>
            <stop stop-color="#F7974E" offset="100%"></stop>
        </linearGradient>
    </defs>
    <g id="Welcome" stroke="none" stroke-width="1" fill="none" fill-rule="evenodd" sketch:type="MSPage">
        <g id="Desktop-HD" sketch:type="MSArtboardGroup" transform="translate(-442.000000, -1145.000000)">
            <g id="d3" sketch:type="MSLayerGroup" transform="translate(440.000000, 1143.000000)">
                <path d="M60.889375,42.5273846 C60.9158021,42.2701538 60.9348542,42.0104615 60.9496042,41.7495385 C60.9674271,41.4406154 42.3824271,23.784 42.3824271,23.784 L41.9380833,23.784 C41.9380833,23.784 60.7756771,43.68 60.889375,42.5273846 L60.889375,42.5273846 Z" id="Shape" fill="url(#linearGradient-1)" sketch:type="MSShapeGroup"></path>
                <path d="M21.2376875,36.4024615 C21.2131042,36.4566154 21.1885208,36.5107692 21.1633229,36.5649231 C21.1368958,36.6215385 21.1098542,36.6781538 21.0828125,36.7341538 C20.4903542,37.9710769 29.3766146,46.6695385 30.091375,45.6129231 C30.1239479,45.5661538 30.1565208,45.5169231 30.1890937,45.4701538 C30.2253542,45.4147692 30.261,45.3618462 30.2966458,45.3064615 C30.8682083,44.4375385 21.4915104,35.8375385 21.2376875,36.4024615 L21.2376875,36.4024615 Z" id="Shape" fill="url(#linearGradient-2)" sketch:type="MSShapeGroup"></path>
                <path d="M33.7948542,48.6344615 C33.7696563,48.6898462 33.5908125,48.9926154 33.4273333,49.1526154 C33.3996771,49.208 42.1021771,57.8498462 42.1021771,57.8498462 L42.8857708,57.8498462 C42.8863854,57.8498462 34.7167292,49 33.7948542,48.6344615 L33.7948542,48.6344615 Z" id="Shape" fill="url(#linearGradient-3)" sketch:type="MSShapeGroup"></path>
                <path d="M60.9618958,41.5926154 C60.5550417,50.6264615 53.0909271,57.8498462 43.9717396,57.8498462 L42.7388854,57.8498462 L33.6319896,48.8664615 C34.3811667,47.8086154 35.0774896,46.7126154 35.6976042,45.5698462 L43.9717396,45.5698462 C46.5886354,45.5698462 48.7181667,43.4387692 48.7181667,40.8172308 C48.7181667,38.1969231 46.5886354,36.0646154 43.9717396,36.0646154 L39.0753542,36.0646154 C39.4484062,34.0898462 39.6524479,32.0535385 39.6524479,29.9704615 C39.6524479,27.8553846 39.4447187,25.7901538 39.0581458,23.784 L42.0997187,23.784 L60.9084271,42.3409231 C60.9305521,42.0923077 60.948375,41.8436923 60.9618958,41.5926154 L60.9618958,41.5926154 Z M6.94739583,2 L2,2 L2,14.28 L6.94739583,14.28 C15.5884375,14.28 22.6192708,21.3181538 22.6192708,29.9704615 C22.6192708,32.3243077 22.0950312,34.5587692 21.1633229,36.5649231 L30.1890937,45.4701538 C33.1526146,41.0301538 34.885125,35.6996923 34.885125,29.9704615 C34.885125,14.5476923 22.3519271,2 6.94739583,2 L6.94739583,2 Z" id="Shape" fill="url(#linearGradient-4)" sketch:type="MSShapeGroup"></path>
                <path d="M43.9717396,2 L23.9375521,2 C28.8308646,4.99138462 32.8828125,9.23323077 35.6435208,14.28 L43.9717396,14.28 C46.5886354,14.28 48.7181667,16.4110769 48.7181667,19.0326154 C48.7181667,21.6535385 46.5886354,23.7846154 43.9717396,23.7846154 L42.1003333,23.7846154 L60.9090417,42.3415385 C60.9532917,41.8381538 60.9809479,41.3316923 60.9809479,40.8172308 C60.9809479,36.6775385 59.4973437,32.88 57.0340937,29.9243077 C59.4973437,26.9698462 60.9809479,23.1716923 60.9809479,19.0326154 C60.9809479,9.64123077 53.3515104,2 43.9717396,2 L43.9717396,2 Z" id="Shape" fill="url(#linearGradient-5)" sketch:type="MSShapeGroup"></path>
                <path d="M42.7388854,57.8498462 L24.08075,57.8498462 C27.8364687,55.5273846 31.0833125,52.4615385 33.6319896,48.8664615 L42.7388854,57.8498462 L42.7388854,57.8498462 Z M30.1890938,45.4701538 L21.1639375,36.5649231 C18.6705729,41.9304615 13.2370417,45.6621538 6.94739583,45.6621538 L2,45.6621538 L2,57.9409231 L6.94739583,57.9409231 C16.6295417,57.9409231 25.1753229,52.9821538 30.1890938,45.4701538 L30.1890938,45.4701538 Z" id="Shape" fill="url(#linearGradient-6)" sketch:type="MSShapeGroup"></path>
            </g>
        </g>
    </g>
</svg>