<?xml version="1.0" encoding="utf-8"?>
<!-- Generator: Adobe Illustrator 18.0.0, SVG Export Plug-In . SVG Version: 6.00 Build 0)  -->
<!DOCTYPE svg PUBLIC "-//W3C//DTD SVG 1.1//EN" "http://www.w3.org/Graphics/SVG/1.1/DTD/svg11.dtd">
<svg version="1.1" id="Layer_1" xmlns:sketch="http://www.bohemiancoding.com/sketch/ns"
	 xmlns="http://www.w3.org/2000/svg" xmlns:xlink="http://www.w3.org/1999/xlink" x="0px" y="0px" viewBox="0 0 59 56"
	 enable-background="new 0 0 59 56" xml:space="preserve">
<path fill="#FFFFFF" d="M28.2,43.5c3-4.4,4.7-9.8,4.7-15.5c0-15.4-12.5-28-27.9-28H0v12.3h4.9c8.6,0,15.7,7,15.7,15.7
	c0,2.4-0.5,4.6-1.5,6.6c-2.5,5.4-7.9,9.1-14.2,9.1H0v12.3h4.9C14.6,55.9,23.2,51,28.2,43.5z"/>
<path id="Shape_3_" sketch:type="MSShapeGroup" fill="#FFFFFF" d="M31.6,46.9c1.1-1.6,1.4-2.2,2.1-3.3H42c2.6,0,4.7-2.1,4.7-4.8
	c0-2.6-2.1-4.8-4.7-4.8h-4.9c0.4-2,0.6-4,0.6-6.1c0-2.1-0.2-4.2-0.6-6.2c0,0,3,0,3,0H42c2.6,0,4.7-2.1,4.7-4.8
	c0-2.6-2.1-4.8-4.7-4.8h-8.3C30.9,7.2,26.8,3,21.9,0h20c9.4,0,17,7.6,17,17c0,4.1-1.5,7.9-3.9,10.9c2.5,3,3.9,6.8,3.9,10.9
	c-0.4,9-7.9,17-17,17h-1.2H22.1C22.1,55.8,27.1,53.9,31.6,46.9z"/>
</svg>
