<?xml version="1.0" encoding="UTF-8" standalone="no"?>
<svg width="119px" height="31px" viewBox="0 0 119 31" version="1.1" xmlns="http://www.w3.org/2000/svg" xmlns:xlink="http://www.w3.org/1999/xlink" xmlns:sketch="http://www.bohemiancoding.com/sketch/ns">
    <!-- Generator: Sketch 3.0.3 (7891) - http://www.bohemiancoding.com/sketch -->
    <title>palantir-logo</title>
    <desc>Created with Sketch.</desc>
    <defs></defs>
    <g id="Welcome" stroke="none" stroke-width="1" fill="none" fill-rule="evenodd" sketch:type="MSPage">
        <g id="Desktop-HD" sketch:type="MSArtboardGroup" transform="translate(-34.000000, -3190.000000)" fill="#FFFFFF">
            <g id="footer" sketch:type="MSLayerGroup" transform="translate(-3.000000, 3159.000000)">
                <g id="Palantir-Logo" transform="translate(31.000000, 30.000000)" sketch:type="MSShapeGroup">
                    <g id="Logotype" transform="translate(34.958175, 5.095238)">
                        <path d="M0.0904942966,-0.0238095238 L7.48840304,-0.0238095238 C10.1806084,-0.0238095238 12.0131179,0.142857143 13.5288973,1.83333333 C14.6374525,3.02380952 15.1577947,4.5952381 15.1577947,6.33333333 C15.1577947,8.0952381 14.6148289,9.61904762 13.4157795,10.8809524 C12.2393536,12.0952381 10.7235741,12.8809524 6.7418251,12.8809524 L3.16730038,12.8809524 L3.16730038,23.2142857 L0.113117871,23.2142857 L0.113117871,-0.0238095238 L0.0904942966,-0.0238095238 Z M3.14467681,10.1666667 L6.78707224,10.1666667 C8.82319392,10.1666667 11.9,10 11.9,6.21428571 C11.9,2.57142857 9.02680608,2.57142857 7.42053232,2.57142857 L3.14467681,2.57142857 L3.14467681,10.1666667 L3.14467681,10.1666667 Z" id="p"></path>
                        <path d="M25.0669202,23.2380952 C24.8406844,22.4285714 24.7954373,21.6666667 24.7954373,20.8095238 C23.4153992,23.4761905 21.3340304,23.7380952 20.0444867,23.7380952 C16.5152091,23.7380952 14.6374525,21.6428571 14.6374525,18.9761905 C14.6374525,17.6904762 15.0673004,15.6190476 17.3296578,14.2380952 C18.9811787,13.2619048 21.4245247,13.1666667 22.6461977,13.1666667 C23.3701521,13.1666667 23.8452471,13.1904762 24.7275665,13.2619048 C24.7275665,11.2619048 24.7275665,10.3809524 24.1846008,9.69047619 C23.5963878,8.88095238 22.3520913,8.61904762 21.515019,8.61904762 C18.6192015,8.61904762 18.4608365,10.7142857 18.4155894,11.3571429 L15.5423954,11.3571429 C15.6328897,10.5238095 15.723384,9.38095238 16.6057034,8.28571429 C17.7821293,6.92857143 19.9539924,6.54761905 21.5602662,6.54761905 C23.8,6.54761905 26.1754753,7.28571429 27.0125475,8.92857143 C27.5102662,9.9047619 27.5328897,10.6666667 27.5328897,11.4047619 L27.4197719,19.1428571 C27.4197719,19.4047619 27.4423954,21.5714286 27.6686312,23.1904762 L25.0669202,23.1904762 L25.0669202,23.2380952 Z M23.0760456,15.2619048 C21.9222433,15.2619048 17.53327,15.2619048 17.53327,18.547619 C17.53327,19.5714286 18.1441065,21.3571429 20.7231939,21.3571429 C22.1937262,21.3571429 23.3022814,20.7380952 24.0036122,19.6190476 C24.6370722,18.5238095 24.6823194,17.6190476 24.7275665,15.3571429 C24.2072243,15.3095238 23.7773764,15.2619048 23.0760456,15.2619048 L23.0760456,15.2619048 Z" id="a"></path>
                        <path d="M30.0893536,-0.0238095238 L32.9625475,-0.0238095238 L32.9625475,23.2380952 L30.0893536,23.2380952 L30.0893536,-0.0238095238 L30.0893536,-0.0238095238 Z" id="l"></path>
                        <path d="M45.3602662,23.2380952 C45.156654,22.4285714 45.0887833,21.6666667 45.0887833,20.8095238 C43.7087452,23.4761905 41.6273764,23.7380952 40.3378327,23.7380952 C36.8085551,23.7380952 34.9081749,21.6428571 34.9081749,18.9761905 C34.9081749,17.6904762 35.3380228,15.6190476 37.6003802,14.2380952 C39.2519011,13.2619048 41.6952471,13.1666667 42.9169202,13.1666667 C43.6408745,13.1666667 44.1159696,13.1904762 44.998289,13.2619048 C44.998289,11.2619048 44.998289,10.3809524 44.4553232,9.69047619 C43.8671103,8.88095238 42.6228137,8.61904762 41.7857414,8.61904762 C38.8673004,8.61904762 38.7315589,10.7142857 38.6863118,11.3571429 L35.8131179,11.3571429 C35.9036122,10.5238095 35.9941065,9.38095238 36.8764259,8.28571429 C38.0302281,6.92857143 40.2247148,6.54761905 41.8309886,6.54761905 C44.0707224,6.54761905 46.4461977,7.28571429 47.28327,8.92857143 C47.7809886,9.9047619 47.8036122,10.6666667 47.8036122,11.4047619 L47.6904943,19.1428571 C47.6904943,19.4047619 47.7131179,21.5714286 47.9393536,23.1904762 L45.3602662,23.1904762 L45.3602662,23.2380952 Z M43.3467681,15.2619048 C42.1929658,15.2619048 37.8039924,15.2619048 37.8039924,18.547619 C37.8039924,19.5714286 38.4148289,21.3571429 40.9939163,21.3571429 C42.4644487,21.3571429 43.5730038,20.7380952 44.2743346,19.6190476 C44.9077947,18.5238095 44.9530418,17.6190476 44.998289,15.3571429 C44.5005703,15.3095238 44.0707224,15.2619048 43.3467681,15.2619048 L43.3467681,15.2619048 Z" id="a"></path>
                        <path d="M50.4053232,8.92857143 L50.3826996,7.04761905 L53.2558935,7.04761905 L53.2785171,9.66666667 C53.6178707,9 54.7038023,6.73809524 58.2104563,6.73809524 C59.5904943,6.73809524 63.7758555,7.28571429 63.7758555,12.2380952 L63.7758555,23.2142857 L60.8347909,23.2142857 L60.8347909,12.9285714 C60.8347909,11.8571429 60.721673,10.9047619 59.9977186,10.1666667 C59.2511407,9.42857143 58.2557034,9.07142857 57.2828897,9.07142857 C55.2015209,9.07142857 53.2785171,10.6428571 53.2785171,13.9047619 L53.2785171,23.2142857 L50.4053232,23.2142857 L50.4053232,8.92857143 L50.4053232,8.92857143 Z" id="n"></path>
                        <path d="M67.3956274,7.04761905 L67.3956274,3.5952381 L70.2461977,2.61904762 L70.2461977,7.02380952 L73.684981,7.02380952 L73.684981,9.23809524 L70.2461977,9.23809524 L70.2461977,18.8809524 C70.2461977,19.6904762 70.2461977,21.047619 72.304943,21.047619 C72.8931559,21.047619 73.4361217,20.952381 73.684981,20.8809524 L73.684981,23.2380952 C73.1646388,23.3333333 72.3275665,23.4285714 71.2868821,23.4285714 C68.6625475,23.4285714 67.3956274,22.6190476 67.3956274,19.9761905 L67.3956274,9.28571429 L64.6807985,9.28571429 L64.6807985,7.04761905 L67.3956274,7.04761905 Z" id="t"></path>
                        <path d="M67.3956274,7.04761905 L67.3956274,3.5952381 L70.2461977,2.61904762 L70.2461977,7.02380952 L73.684981,7.02380952 L73.684981,9.23809524 L70.2461977,9.23809524 L70.2461977,18.8809524 C70.2461977,19.6904762 70.2461977,21.047619 72.304943,21.047619 C72.8931559,21.047619 73.4361217,20.952381 73.684981,20.8809524 L73.684981,23.2380952 C73.1646388,23.3333333 72.3275665,23.4285714 71.2868821,23.4285714 C68.6625475,23.4285714 67.3956274,22.6190476 67.3956274,19.9761905 L67.3956274,9.28571429 L64.6807985,9.28571429 L64.6807985,7.04761905 L67.3956274,7.04761905 Z" id="t-2"></path>
                        <path d="M75.6984791,-0.0238095238 L79.1598859,-0.0238095238 L79.1598859,3.35714286 L75.6984791,3.35714286 L75.6984791,-0.0238095238 L75.6984791,-0.0238095238 Z M76.0152091,7.04761905 L78.888403,7.04761905 L78.888403,23.2142857 L76.0152091,23.2142857 L76.0152091,7.04761905 L76.0152091,7.04761905 Z" id="i"></path>
                        <path d="M81.5579848,10.3333333 C81.5579848,9.23809524 81.4901141,8.11904762 81.3996198,7.04761905 L84.3180608,7.04761905 L84.3859316,10.1666667 C84.9288973,7.9047619 86.7840304,7.16666667 88.0509506,6.97619048 C88.9106464,6.85714286 89.5441065,6.88095238 90.0418251,6.9047619 L90.0418251,9.85714286 C89.8834601,9.78571429 89.7024715,9.76190476 89.4988593,9.73809524 C89.2952471,9.71428571 89.0011407,9.71428571 88.6617871,9.71428571 C85.268251,9.71428571 84.4538023,11.8333333 84.4538023,14.6190476 L84.4538023,23.2142857 L81.5579848,23.2142857 L81.5579848,10.3333333 L81.5579848,10.3333333 Z" id="r"></path>
                    </g>
                    <g id="Logomark" transform="translate(6.000000, 2.000000)">
                        <path d="M11.8595157,-0.0476190476 C5.59635781,-0.0476190476 0.50010006,5.02380952 0.50010006,11.3095238 C0.50010006,17.5952381 5.57254353,22.6666667 11.8595157,22.6666667 C18.1226736,22.6666667 23.2189314,17.5952381 23.2189314,11.3095238 C23.2189314,5.02380952 18.1226736,-0.0476190476 11.8595157,-0.0476190476 L11.8595157,-0.0476190476 Z M11.8595157,19.1666667 C7.52531519,19.1666667 4.00080048,15.6428571 4.00080048,11.3095238 C4.00080048,6.97619048 7.52531519,3.45238095 11.8595157,3.45238095 C16.1937162,3.45238095 19.7182309,6.97619048 19.7182309,11.3095238 C19.6944166,15.6666667 16.1937162,19.1666667 11.8595157,19.1666667 L11.8595157,19.1666667 Z" id="Shape"></path>
                        <path d="M22.0044026,21.6666667 L11.8595157,26.047619 L1.69081449,21.6666667 L0.0238142886,24.9047619 L11.8595157,29.952381 L23.6952171,24.9047619 L22.0044026,21.6666667 Z" id="Shape"></path>
                    </g>
                </g>
            </g>
        </g>
    </g>
</svg>