<?xml version="1.0" encoding="UTF-8" standalone="no"?>
<svg width="531px" height="64px" viewBox="0 0 531 64" version="1.1" xmlns="http://www.w3.org/2000/svg" xmlns:xlink="http://www.w3.org/1999/xlink" xmlns:sketch="http://www.bohemiancoding.com/sketch/ns">
    <!-- Generator: Sketch 3.0.3 (7891) - http://www.bohemiancoding.com/sketch -->
    <title>plots</title>
    <desc>Created with Sketch.</desc>
    <defs></defs>
    <g id="Welcome" stroke="none" stroke-width="1" fill="none" fill-rule="evenodd" sketch:type="MSPage">
        <g id="Desktop-HD" sketch:type="MSArtboardGroup" transform="translate(-455.000000, -1913.000000)">
            <g id="1.-Easier,-More-Reusable" sketch:type="MSLayerGroup" transform="translate(0.000000, 1611.000000)">
                <g id="line-plots-+-area-plot-+-bar-plot" transform="translate(442.000000, 299.000000)" sketch:type="MSShapeGroup">
                    <g id="line-plots" transform="translate(14.000000, 7.388889)">
                        <path d="M10.9856232,43.2083333 L35.5034308,18.627442" id="Line" stroke="#FFFFFF" stroke-linecap="square"></path>
                        <path d="M46.4776358,19.4861111 L65.1453538,38.201861" id="Line" stroke="#FFFFFF" stroke-linecap="square"></path>
                        <path d="M103.108648,10.1538329 L75.2092652,38.125" id="Line" stroke="#FFFFFF" stroke-linecap="square"></path>
                        <ellipse id="Oval-1" stroke="#009CDE" fill="#FFFFFF" cx="5.91533546" cy="48.2916667" rx="5.91533546" ry="5.93055556"></ellipse>
                        <ellipse id="Oval-3" stroke="#009CDE" fill="#FFFFFF" cx="41.4073482" cy="16.0972222" rx="5.91533546" ry="5.93055556"></ellipse>
                        <ellipse id="Oval-4" stroke="#009CDE" fill="#FFFFFF" cx="70.1389776" cy="41.5138889" rx="5.91533546" ry="5.93055556"></ellipse>
                        <path d="M107.321086,11.8611111 C110.588036,11.8611111 113.236422,9.20591095 113.236422,5.93055556 C113.236422,2.65520016 110.588036,0 107.321086,0 C104.054137,0 101.405751,2.65520016 101.405751,5.93055556 C101.405751,9.20591095 104.054137,11.8611111 107.321086,11.8611111 Z" id="Oval-2" stroke="#009CDE" fill="#FFFFFF"></path>
                    </g>
                    <g id="area-plot" transform="translate(196.530351, 4.000000)">
                        <path d="M6.69271353,54.328125 L6.69271353,26.4016058 L64.2351964,26.4016058 L64.2351964,6.29429977 L141.436885,6.29430027 L141.436887,53.6903004 L6.69271353,54.328125 Z" id="Path-29" stroke="#FFFFFF"></path>
                        <path d="M5.91533546,32.1944444 C9.18228503,32.1944444 11.8306709,29.5392443 11.8306709,26.2638889 C11.8306709,22.9885335 9.18228503,20.3333333 5.91533546,20.3333333 C2.6483859,20.3333333 0,22.9885335 0,26.2638889 C0,29.5392443 2.6483859,32.1944444 5.91533546,32.1944444 Z" id="Oval-5" stroke="#009CDE" fill="#FFFFFF"></path>
                        <path d="M63.3785942,32.1944444 C66.6455438,32.1944444 69.2939297,29.5392443 69.2939297,26.2638889 C69.2939297,22.9885335 66.6455438,20.3333333 63.3785942,20.3333333 C60.1116447,20.3333333 57.4632588,22.9885335 57.4632588,26.2638889 C57.4632588,29.5392443 60.1116447,32.1944444 63.3785942,32.1944444 Z" id="Oval-7" stroke="#009CDE" fill="#FFFFFF"></path>
                        <path d="M63.3785942,11.8611111 C66.6455438,11.8611111 69.2939297,9.20591095 69.2939297,5.93055556 C69.2939297,2.65520016 66.6455438,0 63.3785942,0 C60.1116447,0 57.4632588,2.65520016 57.4632588,5.93055556 C57.4632588,9.20591095 60.1116447,11.8611111 63.3785942,11.8611111 Z" id="Oval-8" stroke="#009CDE" fill="#FFFFFF"></path>
                        <path d="M141.123003,11.8611111 C144.389953,11.8611111 147.038339,9.20591095 147.038339,5.93055556 C147.038339,2.65520016 144.389953,0 141.123003,0 C137.856054,0 135.207668,2.65520016 135.207668,5.93055556 C135.207668,9.20591095 137.856054,11.8611111 141.123003,11.8611111 Z" id="Oval-9" stroke="#009CDE" fill="#FFFFFF"></path>
                        <path d="M141.123003,61 C144.389953,61 147.038339,58.3447998 147.038339,55.0694444 C147.038339,51.7940891 144.389953,49.1388889 141.123003,49.1388889 C137.856054,49.1388889 135.207668,51.7940891 135.207668,55.0694444 C135.207668,58.3447998 137.856054,61 141.123003,61 Z" id="Oval-10" stroke="#009CDE" fill="#FFFFFF"></path>
                        <path d="M5.91533546,61 C9.18228503,61 11.8306709,58.3447998 11.8306709,55.0694444 C11.8306709,51.7940891 9.18228503,49.1388889 5.91533546,49.1388889 C2.6483859,49.1388889 0,51.7940891 0,55.0694444 C0,58.3447998 2.6483859,61 5.91533546,61 Z" id="Oval-6" stroke="#009CDE" fill="#FFFFFF"></path>
                    </g>
                    <g id="bar-plot" transform="translate(421.313099, 4.000000)">
                        <path d="M50.6927249,54.328125 L50.6927249,6.29430027 L70.9043507,6.29430027 L70.9043509,53.6903004 L50.6927249,54.328125 Z" id="Path-29" stroke="#FFFFFF"></path>
                        <path d="M49.8578275,11.8611111 C53.124777,11.8611111 55.7731629,9.20591095 55.7731629,5.93055556 C55.7731629,2.65520016 53.124777,0 49.8578275,0 C46.5908779,0 43.942492,2.65520016 43.942492,5.93055556 C43.942492,9.20591095 46.5908779,11.8611111 49.8578275,11.8611111 Z" id="Oval-8" stroke="#009CDE" fill="#FFFFFF"></path>
                        <path d="M70.1389776,11.8611111 C73.4059272,11.8611111 76.0543131,9.20591095 76.0543131,5.93055556 C76.0543131,2.65520016 73.4059272,0 70.1389776,0 C66.8720281,0 64.2236422,2.65520016 64.2236422,5.93055556 C64.2236422,9.20591095 66.8720281,11.8611111 70.1389776,11.8611111 Z" id="Oval-9" stroke="#009CDE" fill="#FFFFFF"></path>
                        <path d="M70.1389776,61 C73.4059272,61 76.0543131,58.3447998 76.0543131,55.0694444 C76.0543131,51.7940891 73.4059272,49.1388889 70.1389776,49.1388889 C66.8720281,49.1388889 64.2236422,51.7940891 64.2236422,55.0694444 C64.2236422,58.3447998 66.8720281,61 70.1389776,61 Z" id="Oval-10" stroke="#009CDE" fill="#FFFFFF"></path>
                        <path d="M49.8578275,61 C53.124777,61 55.7731629,58.3447998 55.7731629,55.0694444 C55.7731629,51.7940891 53.124777,49.1388889 49.8578275,49.1388889 C46.5908779,49.1388889 43.942492,51.7940891 43.942492,55.0694444 C43.942492,58.3447998 46.5908779,61 49.8578275,61 Z" id="Oval-6" stroke="#009CDE" fill="#FFFFFF"></path>
                        <path d="M96.3253128,54.2751736 L96.3253128,30.2582612 L116.536939,30.2582612 L116.536939,53.9562613 L96.3253128,54.2751736 Z" id="Path-31" stroke="#FFFFFF"></path>
                        <path d="M95.4904153,37.2777778 C98.7573649,37.2777778 101.405751,34.6225776 101.405751,31.3472222 C101.405751,28.0718668 98.7573649,25.4166667 95.4904153,25.4166667 C92.2234658,25.4166667 89.5750799,28.0718668 89.5750799,31.3472222 C89.5750799,34.6225776 92.2234658,37.2777778 95.4904153,37.2777778 Z" id="Oval-18" stroke="#009CDE" fill="#FFFFFF"></path>
                        <path d="M115.771565,37.2777778 C119.038515,37.2777778 121.686901,34.6225776 121.686901,31.3472222 C121.686901,28.0718668 119.038515,25.4166667 115.771565,25.4166667 C112.504616,25.4166667 109.85623,28.0718668 109.85623,31.3472222 C109.85623,34.6225776 112.504616,37.2777778 115.771565,37.2777778 Z" id="Oval-17" stroke="#009CDE" fill="#FFFFFF"></path>
                        <path d="M115.771565,61 C119.038515,61 121.686901,58.3447998 121.686901,55.0694444 C121.686901,51.7940891 119.038515,49.1388889 115.771565,49.1388889 C112.504616,49.1388889 109.85623,51.7940891 109.85623,55.0694444 C109.85623,58.3447998 112.504616,61 115.771565,61 Z" id="Oval-16" stroke="#009CDE" fill="#FFFFFF"></path>
                        <path d="M95.4904153,61 C98.7573649,61 101.405751,58.3447998 101.405751,55.0694444 C101.405751,51.7940891 98.7573649,49.1388889 95.4904153,49.1388889 C92.2234658,49.1388889 89.5750799,51.7940891 89.5750799,55.0694444 C89.5750799,58.3447998 92.2234658,61 95.4904153,61 Z" id="Oval-15" stroke="#009CDE" fill="#FFFFFF"></path>
                        <path d="M6.75023291,55.984747 L6.75023291,25.1058597 L26.9618587,25.1058597 L26.9618589,55.5747169 L6.75023291,55.984747 Z" id="Path-30" stroke="#FFFFFF"></path>
                        <path d="M5.91533546,30.5 C9.18228503,30.5 11.8306709,27.8447998 11.8306709,24.5694444 C11.8306709,21.2940891 9.18228503,18.6388889 5.91533546,18.6388889 C2.6483859,18.6388889 0,21.2940891 0,24.5694444 C0,27.8447998 2.6483859,30.5 5.91533546,30.5 Z" id="Oval-14" stroke="#009CDE" fill="#FFFFFF"></path>
                        <path d="M26.1964856,30.5 C29.4634352,30.5 32.1118211,27.8447998 32.1118211,24.5694444 C32.1118211,21.2940891 29.4634352,18.6388889 26.1964856,18.6388889 C22.9295361,18.6388889 20.2811502,21.2940891 20.2811502,24.5694444 C20.2811502,27.8447998 22.9295361,30.5 26.1964856,30.5 Z" id="Oval-13" stroke="#009CDE" fill="#FFFFFF"></path>
                        <path d="M26.1964856,61 C29.4634352,61 32.1118211,58.3447998 32.1118211,55.0694444 C32.1118211,51.7940891 29.4634352,49.1388889 26.1964856,49.1388889 C22.9295361,49.1388889 20.2811502,51.7940891 20.2811502,55.0694444 C20.2811502,58.3447998 22.9295361,61 26.1964856,61 Z" id="Oval-12" stroke="#009CDE" fill="#FFFFFF"></path>
                        <path d="M5.91533546,61 C9.18228503,61 11.8306709,58.3447998 11.8306709,55.0694444 C11.8306709,51.7940891 9.18228503,49.1388889 5.91533546,49.1388889 C2.6483859,49.1388889 0,51.7940891 0,55.0694444 C0,58.3447998 2.6483859,61 5.91533546,61 Z" id="Oval-11" stroke="#009CDE" fill="#FFFFFF"></path>
                    </g>
                </g>
            </g>
        </g>
    </g>
</svg>