<?xml version="1.0" encoding="UTF-8" standalone="no"?>
<svg width="316px" height="39px" viewBox="0 0 316 39" version="1.1" xmlns="http://www.w3.org/2000/svg" xmlns:xlink="http://www.w3.org/1999/xlink" xmlns:sketch="http://www.bohemiancoding.com/sketch/ns">
    <!-- Generator: Sketch 3.0.3 (7891) - http://www.bohemiancoding.com/sketch -->
    <title>line plots + area plot + bar plot</title>
    <desc>Created with Sketch.</desc>
    <defs></defs>
    <g id="Welcome" stroke="none" stroke-width="1" fill="none" fill-rule="evenodd" sketch:type="MSPage">
        <g id="Desktop-HD" sketch:type="MSArtboardGroup" transform="translate(-566.000000, -1162.000000)" stroke="#979797">
            <g id="1.-Easier,-More-Reusable" sketch:type="MSLayerGroup" transform="translate(424.000000, 959.000000)">
                <g id="line-plots-+-area-plot-+-bar-plot" transform="translate(143.000000, 204.000000)" sketch:type="MSShapeGroup">
                    <g id="line-plots" transform="translate(0.000000, 2.000000)">
                        <path d="M6.50000012,25.5 L21.0067558,10.9932445" id="Line" stroke-linecap="square"></path>
                        <path d="M27.5,11.5 L38.5453606,22.5453606" id="Line" stroke-linecap="square"></path>
                        <path d="M61.0075741,5.99242598 L44.5,22.5" id="Line" stroke-linecap="square"></path>
                        <circle id="Oval-1" fill="#FFFFFF" cx="3.5" cy="28.5" r="3.5"></circle>
                        <circle id="Oval-3" fill="#FFFFFF" cx="24.5" cy="9.5" r="3.5"></circle>
                        <circle id="Oval-4" fill="#FFFFFF" cx="41.5" cy="24.5" r="3.5"></circle>
                        <path d="M63.5,7 C65.4329966,7 67,5.43299662 67,3.5 C67,1.56700338 65.4329966,0 63.5,0 C61.5670034,0 60,1.56700338 60,3.5 C60,5.43299662 61.5670034,7 63.5,7 Z" id="Oval-2" fill="#FFFFFF"></path>
                    </g>
                    <g id="area-plot" transform="translate(108.000000, 0.000000)">
                        <path d="M3.95996094,32.0625 L3.95996094,15.5812755 L38.0068365,15.5812755 L38.0068365,3.71466871 L83.6857185,3.71466901 L83.6857195,31.6860789 L3.95996094,32.0625 Z" id="Path-29"></path>
                        <path d="M3.5,19 C5.43299662,19 7,17.4329966 7,15.5 C7,13.5670034 5.43299662,12 3.5,12 C1.56700338,12 0,13.5670034 0,15.5 C0,17.4329966 1.56700338,19 3.5,19 Z" id="Oval-5" fill="#FFFFFF"></path>
                        <path d="M37.5,19 C39.4329966,19 41,17.4329966 41,15.5 C41,13.5670034 39.4329966,12 37.5,12 C35.5670034,12 34,13.5670034 34,15.5 C34,17.4329966 35.5670034,19 37.5,19 Z" id="Oval-7" fill="#FFFFFF"></path>
                        <path d="M37.5,7 C39.4329966,7 41,5.43299662 41,3.5 C41,1.56700338 39.4329966,0 37.5,0 C35.5670034,0 34,1.56700338 34,3.5 C34,5.43299662 35.5670034,7 37.5,7 Z" id="Oval-8" fill="#FFFFFF"></path>
                        <path d="M83.5,7 C85.4329966,7 87,5.43299662 87,3.5 C87,1.56700338 85.4329966,0 83.5,0 C81.5670034,0 80,1.56700338 80,3.5 C80,5.43299662 81.5670034,7 83.5,7 Z" id="Oval-9" fill="#FFFFFF"></path>
                        <path d="M83.5,36 C85.4329966,36 87,34.4329966 87,32.5 C87,30.5670034 85.4329966,29 83.5,29 C81.5670034,29 80,30.5670034 80,32.5 C80,34.4329966 81.5670034,36 83.5,36 Z" id="Oval-10" fill="#FFFFFF"></path>
                        <path d="M3.5,36 C5.43299662,36 7,34.4329966 7,32.5 C7,30.5670034 5.43299662,29 3.5,29 C1.56700338,29 0,30.5670034 0,32.5 C0,34.4329966 1.56700338,36 3.5,36 Z" id="Oval-6" fill="#FFFFFF"></path>
                    </g>
                    <g id="bar-plot" transform="translate(241.000000, 0.000000)">
                        <path d="M29.9939941,32.0625 L29.9939941,3.71466901 L41.9528578,3.71466901 L41.9528579,31.6860789 L29.9939941,32.0625 Z" id="Path-29"></path>
                        <path d="M29.5,7 C31.4329966,7 33,5.43299662 33,3.5 C33,1.56700338 31.4329966,0 29.5,0 C27.5670034,0 26,1.56700338 26,3.5 C26,5.43299662 27.5670034,7 29.5,7 Z" id="Oval-8" fill="#FFFFFF"></path>
                        <path d="M41.5,7 C43.4329966,7 45,5.43299662 45,3.5 C45,1.56700338 43.4329966,0 41.5,0 C39.5670034,0 38,1.56700338 38,3.5 C38,5.43299662 39.5670034,7 41.5,7 Z" id="Oval-9" fill="#FFFFFF"></path>
                        <path d="M41.5,36 C43.4329966,36 45,34.4329966 45,32.5 C45,30.5670034 43.4329966,29 41.5,29 C39.5670034,29 38,30.5670034 38,32.5 C38,34.4329966 39.5670034,36 41.5,36 Z" id="Oval-10" fill="#FFFFFF"></path>
                        <path d="M29.5,36 C31.4329966,36 33,34.4329966 33,32.5 C33,30.5670034 31.4329966,29 29.5,29 C27.5670034,29 26,30.5670034 26,32.5 C26,34.4329966 27.5670034,36 29.5,36 Z" id="Oval-6" fill="#FFFFFF"></path>
                        <path d="M56.9939941,32.03125 L56.9939941,17.8573345 L68.9528578,17.8573345 L68.9528579,31.8430395 L56.9939941,32.03125 Z" id="Path-31"></path>
                        <path d="M56.5,22 C58.4329966,22 60,20.4329966 60,18.5 C60,16.5670034 58.4329966,15 56.5,15 C54.5670034,15 53,16.5670034 53,18.5 C53,20.4329966 54.5670034,22 56.5,22 Z" id="Oval-18" fill="#FFFFFF"></path>
                        <path d="M68.5,22 C70.4329966,22 72,20.4329966 72,18.5 C72,16.5670034 70.4329966,15 68.5,15 C66.5670034,15 65,16.5670034 65,18.5 C65,20.4329966 66.5670034,22 68.5,22 Z" id="Oval-17" fill="#FFFFFF"></path>
                        <path d="M68.5,36 C70.4329966,36 72,34.4329966 72,32.5 C72,30.5670034 70.4329966,29 68.5,29 C66.5670034,29 65,30.5670034 65,32.5 C65,34.4329966 66.5670034,36 68.5,36 Z" id="Oval-16" fill="#FFFFFF"></path>
                        <path d="M56.5,36 C58.4329966,36 60,34.4329966 60,32.5 C60,30.5670034 58.4329966,29 56.5,29 C54.5670034,29 53,30.5670034 53,32.5 C53,34.4329966 54.5670034,36 56.5,36 Z" id="Oval-15" fill="#FFFFFF"></path>
                        <path d="M3.99399414,33.0401786 L3.99399414,14.8165729 L15.9528578,14.8165729 L15.9528579,32.7981936 L3.99399414,33.0401786 Z" id="Path-30"></path>
                        <path d="M3.5,18 C5.43299662,18 7,16.4329966 7,14.5 C7,12.5670034 5.43299662,11 3.5,11 C1.56700338,11 0,12.5670034 0,14.5 C0,16.4329966 1.56700338,18 3.5,18 Z" id="Oval-14" fill="#FFFFFF"></path>
                        <path d="M15.5,18 C17.4329966,18 19,16.4329966 19,14.5 C19,12.5670034 17.4329966,11 15.5,11 C13.5670034,11 12,12.5670034 12,14.5 C12,16.4329966 13.5670034,18 15.5,18 Z" id="Oval-13" fill="#FFFFFF"></path>
                        <path d="M15.5,36 C17.4329966,36 19,34.4329966 19,32.5 C19,30.5670034 17.4329966,29 15.5,29 C13.5670034,29 12,30.5670034 12,32.5 C12,34.4329966 13.5670034,36 15.5,36 Z" id="Oval-12" fill="#FFFFFF"></path>
                        <path d="M3.5,36 C5.43299662,36 7,34.4329966 7,32.5 C7,30.5670034 5.43299662,29 3.5,29 C1.56700338,29 0,30.5670034 0,32.5 C0,34.4329966 1.56700338,36 3.5,36 Z" id="Oval-11" fill="#FFFFFF"></path>
                    </g>
                </g>
            </g>
        </g>
    </g>
</svg>