<svg width="59" height="56" viewBox="0 0 59 56" version="1.1" xmlns="http://www.w3.org/2000/svg" xmlns:sketch="http://www.bohemiancoding.com/sketch/ns"><title>d3</title><desc>Created with Sketch.</desc><defs><linearGradient x1="-89.682%" y1="-92.82%" x2="106.623%" y2="106.042%" id="a"><stop stop-color="#F9A03C" offset="0%"/><stop stop-color="#F7974E" offset="100%"/></linearGradient><linearGradient x1="-258.924%" y1="-255.012%" x2="97.62%" y2="99.754%" id="b"><stop stop-color="#F9A03C" offset="0%"/><stop stop-color="#F7974E" offset="100%"/></linearGradient><linearGradient x1="-254.734%" y1="-261.968%" x2="99.117%" y2="101.691%" id="c"><stop stop-color="#F9A03C" offset="0%"/><stop stop-color="#F7974E" offset="100%"/></linearGradient><linearGradient x1="1.723%" y1="-1.822%" x2="90.578%" y2="92.107%" id="d"><stop stop-color="#F26D58" offset="0%"/><stop stop-color="#F9A03C" offset="100%"/></linearGradient><linearGradient x1="15.844%" y1="-14.565%" x2="120.126%" y2="81.316%" id="e"><stop stop-color="#B84E51" offset="0%"/><stop stop-color="#F68E48" offset="100%"/></linearGradient><linearGradient x1="10.005%" y1="23.466%" x2="74.945%" y2="147.391%" id="f"><stop stop-color="#F9A03C" offset="0%"/><stop stop-color="#F7974E" offset="100%"/></linearGradient></defs><g sketch:type="MSLayerGroup" stroke="none" stroke-width="1" fill="none" fill-rule="evenodd"><path d="M58.889 40.527c.026-.257.045-.517.06-.778.018-.309-18.567-17.966-18.567-17.966h-.444s18.838 19.896 18.951 18.743z" id="Shape" fill="url(#a)" sketch:type="MSShapeGroup"/><path d="M19.238 34.402l-.074.162-.081.169c-.592 1.237 8.294 9.935 9.009 8.879l.098-.143.108-.164c.572-.869-8.805-9.469-9.059-8.904z" id="Shape" fill="url(#b)" sketch:type="MSShapeGroup"/><path d="M31.795 46.634c-.025.055-.204.358-.368.518-.028.055 8.675 8.697 8.675 8.697h.784c.001 0-8.169-8.85-9.091-9.215z" id="Shape" fill="url(#c)" sketch:type="MSShapeGroup"/><path d="M58.962 39.593c-.407 9.034-7.871 16.257-16.99 16.257h-1.233l-9.107-8.983c.749-1.058 1.446-2.154 2.066-3.297h8.274c2.617 0 4.746-2.131 4.746-4.753 0-2.62-2.13-4.753-4.746-4.753h-4.896c.373-1.975.577-4.011.577-6.094 0-2.115-.208-4.18-.594-6.186h3.042l18.809 18.557.053-.748zm-54.014-39.593h-4.947v12.28h4.947c8.641 0 15.672 7.038 15.672 15.69 0 2.354-.524 4.588-1.456 6.594l9.026 8.905c2.964-4.44 4.696-9.77 4.696-15.5 0-15.423-12.533-27.97-27.938-27.97z" id="Shape" fill="url(#d)" sketch:type="MSShapeGroup"/><path d="M41.972 0h-20.034c4.893 2.991 8.945 7.233 11.706 12.28h8.328c2.617 0 4.746 2.131 4.746 4.753 0 2.621-2.13 4.752-4.746 4.752h-1.871l18.809 18.557c.044-.503.072-1.01.072-1.524 0-4.14-1.484-7.937-3.947-10.893 2.463-2.954 3.947-6.753 3.947-10.892 0-9.391-7.629-17.033-17.009-17.033z" id="Shape" fill="url(#e)" sketch:type="MSShapeGroup"/><path d="M40.739 55.85h-18.658c3.756-2.322 7.003-5.388 9.551-8.983l9.107 8.983zm-12.55-12.38l-9.025-8.905c-2.493 5.366-7.927 9.097-14.217 9.097h-4.947v12.279h4.947c9.682 0 18.228-4.959 23.242-12.471z" fill="url(#f)" sketch:type="MSShapeGroup"/></g></svg>