<svg width="119" height="31" viewBox="0 0 119 31" version="1.1" xmlns="http://www.w3.org/2000/svg" xmlns:sketch="http://www.bohemiancoding.com/sketch/ns"><title>palantir-logo</title><desc>Created with Sketch.</desc><g sketch:type="MSShapeGroup" fill="#fff" stroke="none" stroke-width="1" fill-rule="evenodd"><g><path d="M29.048 4.071h7.398c2.692 0 4.525.167 6.04 1.857 1.109 1.19 1.629 2.762 1.629 4.5 0 1.762-.543 3.286-1.742 4.548-1.176 1.214-2.692 2-6.674 2h-3.575v10.333h-3.054v-23.238h-.023zm3.054 10.19h3.642c2.036 0 5.113-.167 5.113-3.952 0-3.643-2.873-3.643-4.479-3.643h-4.276v7.595z"/><path d="M54.025 27.333c-.226-.81-.271-1.571-.271-2.429-1.38 2.667-3.461 2.929-4.751 2.929-3.529 0-5.407-2.095-5.407-4.762 0-1.286.43-3.357 2.692-4.738 1.652-.976 4.095-1.071 5.317-1.071.724 0 1.199.024 2.081.095 0-2 0-2.881-.543-3.571-.588-.81-1.833-1.071-2.67-1.071-2.896 0-3.054 2.095-3.099 2.738h-2.873c.09-.833.181-1.976 1.063-3.071 1.176-1.357 3.348-1.738 4.955-1.738 2.24 0 4.615.738 5.452 2.381.498.976.52 1.738.52 2.476l-.113 7.738c0 .262.023 2.429.249 4.048h-2.602v.048zm-1.991-7.976c-1.154 0-5.543 0-5.543 3.286 0 1.024.611 2.81 3.19 2.81 1.471 0 2.579-.619 3.28-1.738.633-1.095.679-2 .724-4.262-.52-.048-.95-.095-1.652-.095z" id="a"/><path d="M59.047 4.071h2.873v23.262h-2.873v-23.262z"/><path d="M74.318 27.333c-.204-.81-.271-1.571-.271-2.429-1.38 2.667-3.461 2.929-4.751 2.929-3.529 0-5.43-2.095-5.43-4.762 0-1.286.43-3.357 2.692-4.738 1.652-.976 4.095-1.071 5.317-1.071.724 0 1.199.024 2.081.095 0-2 0-2.881-.543-3.571-.588-.81-1.833-1.071-2.67-1.071-2.918 0-3.054 2.095-3.099 2.738h-2.873c.09-.833.181-1.976 1.063-3.071 1.154-1.357 3.348-1.738 4.955-1.738 2.24 0 4.615.738 5.452 2.381.498.976.52 1.738.52 2.476l-.113 7.738c0 .262.023 2.429.249 4.048h-2.579v.048zm-2.013-7.976c-1.154 0-5.543 0-5.543 3.286 0 1.024.611 2.81 3.19 2.81 1.471 0 2.579-.619 3.28-1.738.633-1.095.679-2 .724-4.262-.498-.048-.928-.095-1.652-.095z"/><path d="M79.363 13.024l-.023-1.881h2.873l.023 2.619c.339-.667 1.425-2.929 4.932-2.929 1.38 0 5.565.548 5.565 5.5v10.976h-2.941v-10.286c0-1.071-.113-2.024-.837-2.762-.747-.738-1.742-1.095-2.715-1.095-2.081 0-4.004 1.571-4.004 4.833v9.31h-2.873v-14.286z"/><path d="M96.354 11.143v-3.452l2.851-.976v4.405h3.439v2.214h-3.439v9.643c0 .81 0 2.167 2.059 2.167.588 0 1.131-.095 1.38-.167v2.357c-.52.095-1.357.19-2.398.19-2.624 0-3.891-.81-3.891-3.452v-10.69h-2.715v-2.238h2.715z"/><path d="M96.354 11.143v-3.452l2.851-.976v4.405h3.439v2.214h-3.439v9.643c0 .81 0 2.167 2.059 2.167.588 0 1.131-.095 1.38-.167v2.357c-.52.095-1.357.19-2.398.19-2.624 0-3.891-.81-3.891-3.452v-10.69h-2.715v-2.238h2.715z"/><path d="M104.656 4.071h3.461v3.381h-3.461v-3.381zm.317 7.071h2.873v16.167h-2.873v-16.167z"/><path d="M110.516 14.428c0-1.095-.068-2.214-.158-3.286h2.918l.068 3.119c.543-2.262 2.398-3 3.665-3.19.86-.119 1.493-.095 1.991-.071v2.952c-.158-.071-.339-.095-.543-.119-.204-.024-.498-.024-.837-.024-3.394 0-4.208 2.119-4.208 4.905v8.595h-2.896v-12.881z"/></g><g><path d="M11.86.952c-6.263 0-11.359 5.071-11.359 11.357s5.072 11.357 11.359 11.357c6.263 0 11.359-5.071 11.359-11.357s-5.096-11.357-11.359-11.357zm0 19.214c-4.334 0-7.859-3.524-7.859-7.857s3.525-7.857 7.859-7.857 7.859 3.524 7.859 7.857c-.024 4.357-3.525 7.857-7.859 7.857zM22.004 22.667l-10.145 4.381-10.169-4.381-1.667 3.238 11.836 5.048 11.836-5.048-1.691-3.238z"/></g></g></svg>