<svg width="316" height="39" viewBox="0 0 316 39" xmlns="http://www.w3.org/2000/svg" xmlns:sketch="http://www.bohemiancoding.com/sketch/ns"><title>line plots + area plot + bar plot</title><desc>Created with Sketch.</desc><g sketch:type="MSShapeGroup" stroke="#979797" fill="none"><g transform="translate(1 3)"><path d="M6.5 25.5l14.507-14.507M27.5 11.5l11.045 11.045M61.008 5.992l-16.508 16.508"/><circle fill="#fff" cx="3.5" cy="28.5" r="3.5"/><circle fill="#fff" cx="24.5" cy="9.5" r="3.5"/><circle fill="#fff" cx="41.5" cy="24.5" r="3.5"/><path d="M63.5 7c1.933 0 3.5-1.567 3.5-3.5s-1.567-3.5-3.5-3.5-3.5 1.567-3.5 3.5 1.567 3.5 3.5 3.5z" fill="#fff"/></g><g><path d="M112.96 33.063v-16.481h34.047v-11.867h45.679v27.971l-79.726.376z" id="Path-29"/><path d="M112.5 20c1.933 0 3.5-1.567 3.5-3.5s-1.567-3.5-3.5-3.5-3.5 1.567-3.5 3.5 1.567 3.5 3.5 3.5z" fill="#fff"/><path d="M146.5 20c1.933 0 3.5-1.567 3.5-3.5s-1.567-3.5-3.5-3.5-3.5 1.567-3.5 3.5 1.567 3.5 3.5 3.5z" fill="#fff"/><path d="M146.5 8c1.933 0 3.5-1.567 3.5-3.5s-1.567-3.5-3.5-3.5-3.5 1.567-3.5 3.5 1.567 3.5 3.5 3.5z" id="Oval-8" fill="#fff"/><path d="M192.5 8c1.933 0 3.5-1.567 3.5-3.5s-1.567-3.5-3.5-3.5-3.5 1.567-3.5 3.5 1.567 3.5 3.5 3.5z" id="Oval-9" fill="#fff"/><path d="M192.5 37c1.933 0 3.5-1.567 3.5-3.5s-1.567-3.5-3.5-3.5-3.5 1.567-3.5 3.5 1.567 3.5 3.5 3.5z" id="Oval-10" fill="#fff"/><path d="M112.5 37c1.933 0 3.5-1.567 3.5-3.5s-1.567-3.5-3.5-3.5-3.5 1.567-3.5 3.5 1.567 3.5 3.5 3.5z" id="Oval-6" fill="#fff"/></g><g><path d="M271.994 33.063v-28.348h11.959v27.971l-11.959.376z"/><path d="M271.5 8c1.933 0 3.5-1.567 3.5-3.5s-1.567-3.5-3.5-3.5-3.5 1.567-3.5 3.5 1.567 3.5 3.5 3.5z" fill="#fff"/><path d="M283.5 8c1.933 0 3.5-1.567 3.5-3.5s-1.567-3.5-3.5-3.5-3.5 1.567-3.5 3.5 1.567 3.5 3.5 3.5z" fill="#fff"/><path d="M283.5 37c1.933 0 3.5-1.567 3.5-3.5s-1.567-3.5-3.5-3.5-3.5 1.567-3.5 3.5 1.567 3.5 3.5 3.5z" fill="#fff"/><path d="M271.5 37c1.933 0 3.5-1.567 3.5-3.5s-1.567-3.5-3.5-3.5-3.5 1.567-3.5 3.5 1.567 3.5 3.5 3.5z" fill="#fff"/><path d="M298.994 33.031v-14.174h11.959v13.986l-11.959.188z"/><path d="M298.5 23c1.933 0 3.5-1.567 3.5-3.5s-1.567-3.5-3.5-3.5-3.5 1.567-3.5 3.5 1.567 3.5 3.5 3.5z" fill="#fff"/><path d="M310.5 23c1.933 0 3.5-1.567 3.5-3.5s-1.567-3.5-3.5-3.5-3.5 1.567-3.5 3.5 1.567 3.5 3.5 3.5z" fill="#fff"/><path d="M310.5 37c1.933 0 3.5-1.567 3.5-3.5s-1.567-3.5-3.5-3.5-3.5 1.567-3.5 3.5 1.567 3.5 3.5 3.5z" fill="#fff"/><path d="M298.5 37c1.933 0 3.5-1.567 3.5-3.5s-1.567-3.5-3.5-3.5-3.5 1.567-3.5 3.5 1.567 3.5 3.5 3.5z" fill="#fff"/><path d="M245.994 34.04v-18.224h11.959v17.982l-11.959.242z"/><path d="M245.5 19c1.933 0 3.5-1.567 3.5-3.5s-1.567-3.5-3.5-3.5-3.5 1.567-3.5 3.5 1.567 3.5 3.5 3.5z" fill="#fff"/><path d="M257.5 19c1.933 0 3.5-1.567 3.5-3.5s-1.567-3.5-3.5-3.5-3.5 1.567-3.5 3.5 1.567 3.5 3.5 3.5z" fill="#fff"/><path d="M257.5 37c1.933 0 3.5-1.567 3.5-3.5s-1.567-3.5-3.5-3.5-3.5 1.567-3.5 3.5 1.567 3.5 3.5 3.5z" fill="#fff"/><path d="M245.5 37c1.933 0 3.5-1.567 3.5-3.5s-1.567-3.5-3.5-3.5-3.5 1.567-3.5 3.5 1.567 3.5 3.5 3.5z" fill="#fff"/></g></g></svg>