<svg width="531" height="64" viewBox="0 0 531 64" version="1.1" xmlns="http://www.w3.org/2000/svg" xmlns:sketch="http://www.bohemiancoding.com/sketch/ns"><title>plots</title><desc>Created with Sketch.</desc><g sketch:type="MSShapeGroup" stroke="none" stroke-width="1" fill="none" fill-rule="evenodd"><g transform="translate(1 4.389)"><path d="M10.986 43.208l24.518-24.581M46.478 19.486l18.668 18.716M103.109 10.154l-27.899 27.971" stroke="#fff" stroke-linecap="square"/><ellipse stroke="#009CDE" fill="#fff" cx="5.915" cy="48.292" rx="5.915" ry="5.931"/><ellipse stroke="#009CDE" fill="#fff" cx="41.407" cy="16.097" rx="5.915" ry="5.931"/><ellipse stroke="#009CDE" fill="#fff" cx="70.139" cy="41.514" rx="5.915" ry="5.931"/><path d="M107.321 11.861c3.267 0 5.915-2.655 5.915-5.931 0-3.275-2.648-5.931-5.915-5.931s-5.915 2.655-5.915 5.931c0 3.275 2.648 5.931 5.915 5.931z" stroke="#009CDE" fill="#fff"/></g><g><path d="M190.223 55.328v-27.927h57.542v-20.107h77.202v47.396l-134.744.638z" id="Path-29" stroke="#fff"/><path d="M189.445 33.194c3.267 0 5.915-2.655 5.915-5.931 0-3.275-2.648-5.931-5.915-5.931s-5.915 2.655-5.915 5.931c0 3.275 2.648 5.931 5.915 5.931z" stroke="#009CDE" fill="#fff"/><path d="M246.909 33.194c3.267 0 5.915-2.655 5.915-5.931 0-3.275-2.648-5.931-5.915-5.931s-5.915 2.655-5.915 5.931c0 3.275 2.648 5.931 5.915 5.931z" stroke="#009CDE" fill="#fff"/><path d="M246.909 12.861c3.267 0 5.915-2.655 5.915-5.931 0-3.275-2.648-5.931-5.915-5.931s-5.915 2.655-5.915 5.931c0 3.275 2.648 5.931 5.915 5.931z" id="Oval-8" stroke="#009CDE" fill="#fff"/><path d="M324.653 12.861c3.267 0 5.915-2.655 5.915-5.931 0-3.275-2.648-5.931-5.915-5.931s-5.915 2.655-5.915 5.931c0 3.275 2.648 5.931 5.915 5.931z" id="Oval-9" stroke="#009CDE" fill="#fff"/><path d="M324.653 62c3.267 0 5.915-2.655 5.915-5.931 0-3.275-2.648-5.931-5.915-5.931s-5.915 2.655-5.915 5.931c0 3.275 2.648 5.931 5.915 5.931z" id="Oval-10" stroke="#009CDE" fill="#fff"/><path d="M189.445 62c3.267 0 5.915-2.655 5.915-5.931 0-3.275-2.648-5.931-5.915-5.931s-5.915 2.655-5.915 5.931c0 3.275 2.648 5.931 5.915 5.931z" id="Oval-6" stroke="#009CDE" fill="#fff"/></g><g><path d="M459.006 55.328v-48.034h20.212v47.396l-20.212.638z" stroke="#fff"/><path d="M458.171 12.861c3.267 0 5.915-2.655 5.915-5.931 0-3.275-2.648-5.931-5.915-5.931s-5.915 2.655-5.915 5.931c0 3.275 2.648 5.931 5.915 5.931z" stroke="#009CDE" fill="#fff"/><path d="M478.452 12.861c3.267 0 5.915-2.655 5.915-5.931 0-3.275-2.648-5.931-5.915-5.931s-5.915 2.655-5.915 5.931c0 3.275 2.648 5.931 5.915 5.931z" stroke="#009CDE" fill="#fff"/><path d="M478.452 62c3.267 0 5.915-2.655 5.915-5.931 0-3.275-2.648-5.931-5.915-5.931s-5.915 2.655-5.915 5.931c0 3.275 2.648 5.931 5.915 5.931z" stroke="#009CDE" fill="#fff"/><path d="M458.171 62c3.267 0 5.915-2.655 5.915-5.931 0-3.275-2.648-5.931-5.915-5.931s-5.915 2.655-5.915 5.931c0 3.275 2.648 5.931 5.915 5.931z" stroke="#009CDE" fill="#fff"/><path d="M504.638 55.275v-24.017h20.212v23.698l-20.212.319z" stroke="#fff"/><path d="M503.803 38.278c3.267 0 5.915-2.655 5.915-5.931 0-3.275-2.648-5.931-5.915-5.931s-5.915 2.655-5.915 5.931c0 3.275 2.648 5.931 5.915 5.931z" stroke="#009CDE" fill="#fff"/><path d="M524.085 38.278c3.267 0 5.915-2.655 5.915-5.931 0-3.275-2.648-5.931-5.915-5.931s-5.915 2.655-5.915 5.931c0 3.275 2.648 5.931 5.915 5.931z" stroke="#009CDE" fill="#fff"/><path d="M524.085 62c3.267 0 5.915-2.655 5.915-5.931 0-3.275-2.648-5.931-5.915-5.931s-5.915 2.655-5.915 5.931c0 3.275 2.648 5.931 5.915 5.931z" stroke="#009CDE" fill="#fff"/><path d="M503.803 62c3.267 0 5.915-2.655 5.915-5.931 0-3.275-2.648-5.931-5.915-5.931s-5.915 2.655-5.915 5.931c0 3.275 2.648 5.931 5.915 5.931z" stroke="#009CDE" fill="#fff"/><path d="M415.063 56.985v-30.879h20.212v30.469l-20.212.41z" stroke="#fff"/><path d="M414.228 31.5c3.267 0 5.915-2.655 5.915-5.931 0-3.275-2.648-5.931-5.915-5.931s-5.915 2.655-5.915 5.931c0 3.275 2.648 5.931 5.915 5.931z" stroke="#009CDE" fill="#fff"/><path d="M434.509 31.5c3.267 0 5.915-2.655 5.915-5.931 0-3.275-2.648-5.931-5.915-5.931s-5.915 2.655-5.915 5.931c0 3.275 2.648 5.931 5.915 5.931z" stroke="#009CDE" fill="#fff"/><path d="M434.509 62c3.267 0 5.915-2.655 5.915-5.931 0-3.275-2.648-5.931-5.915-5.931s-5.915 2.655-5.915 5.931c0 3.275 2.648 5.931 5.915 5.931z" stroke="#009CDE" fill="#fff"/><path d="M414.228 62c3.267 0 5.915-2.655 5.915-5.931 0-3.275-2.648-5.931-5.915-5.931s-5.915 2.655-5.915 5.931c0 3.275 2.648 5.931 5.915 5.931z" stroke="#009CDE" fill="#fff"/></g></g></svg>